<?xml version="1.0" encoding="UTF-8"?>
<svg id="Layer_1" xmlns="http://www.w3.org/2000/svg" version="1.1" viewBox="0 0 3677.36 2834.86">
  <!-- Generator: Adobe Illustrator 30.3.0, SVG Export Plug-In . SVG Version: 2.1.3 Build 182)  -->
  <defs>
    <style>
      .st0 {
        stroke-miterlimit: 11.34;
        stroke-width: 2.88px;
      }

      .st0, .st1 {
        fill: none;
        stroke: red;
      }

      .st1 {
        stroke-miterlimit: 11.34;
        stroke-width: 2.88px;
      }
    </style>
  </defs>
  <path class="st0" d="M1652.8,1254.87h-74.13v14.17h-93.83v-14.17h-93.83v14.17h-93.83v-14.17h-93.83v14.17h-93.83v-14.17h-93.83v14.17h-93.83v-14.17h-93.83v14.17h-93.83v-14.17h-93.83v14.17h-93.83v-14.17h-93.83v14.17h-93.83v-14.17h-93.83v14.17h-93.83v-14.17h-74.13v61.09h-14.17v93.83h14.17v61.09h74.13v-14.17h93.83v14.17h93.83v-14.17h93.83v14.17h93.83v-14.17h93.83v14.17h93.83v-14.17h93.83v14.17h93.83v-14.17h93.83v14.17h93.83v-14.17h93.83v14.17h93.83v-14.17h93.83v14.17h93.83v-14.17h93.83v14.17h74.13v-61.09h14.17v-93.83h-14.17v-61.09Z"/>
  <path class="st0" d="M1652.8,933.89h-74.13v14.17h-93.83v-14.17h-93.83v14.17h-93.83v-14.17h-93.83v14.17h-93.83v-14.17h-93.83v14.17h-93.83v-14.17h-93.83v14.17h-93.83v-14.17h-93.83v14.17h-93.83v-14.17h-93.83v14.17h-93.83v-14.17h-93.83v14.17h-93.83v-14.17h-74.13v61.09h-14.17v93.83h14.17v61.09h74.13v-14.17h93.83v14.17h93.83v-14.17h93.83v14.17h93.83v-14.17h93.83v14.17h93.83v-14.17h93.83v14.17h93.83v-14.17h93.83v14.17h93.83v-14.17h93.83v14.17h93.83v-14.17h93.83v14.17h93.83v-14.17h93.83v14.17h74.13v-61.09h14.17v-93.83h-14.17v-61.09Z"/>
  <path class="st0" d="M2519.21,933.89h-31.61v14.17h-93.83v-14.17h-93.83v14.17h-93.83v-14.17h-93.83v14.17h-93.83v-14.17h-93.83v14.17h-93.83v-14.17h-31.61v61.09h14.17v93.83h-14.17v61.09h31.61v-14.17h93.83v14.17h93.83v-14.17h93.83v14.17h93.83v-14.17h93.83v14.17h93.83v-14.17h93.83v14.17h31.61v-61.09h-14.17v-93.83h14.17v-61.09Z"/>
  <path class="st0" d="M2519.21,1254.87h-31.61v14.17h-93.83v-14.17h-93.83v14.17h-93.83v-14.17h-93.83v14.17h-93.83v-14.17h-93.83v14.17h-93.83v-14.17h-31.61v61.09h14.17v93.83h-14.17v61.09h31.61v-14.17h93.83v14.17h93.83v-14.17h93.83v14.17h93.83v-14.17h93.83v14.17h93.83v-14.17h93.83v14.17h31.61v-61.09h-14.17v-93.83h14.17v-61.09Z"/>
  <path class="st0" d="M1578.68,108.92h-93.83v14.17h-93.83v-14.17h-93.83v14.17h-93.83v-14.17h-93.83v14.17h-93.83v-14.17h-93.83v14.17h-93.83v-14.17h-93.83v14.17h-93.83v-14.17h-93.83v14.17h-93.83v-14.17h-93.83v14.17h-93.83v-14.17h-93.83v14.17h-74.13v17.43h-14.17v93.83h14.17v93.83h-14.17v93.83h14.17v93.83h-14.17v93.83h14.17v93.83h-14.17v93.83h14.17v17.43h74.13v14.17h93.83v-14.17h93.83v14.17h93.83v-14.17h93.83v14.17h93.83v-14.17h93.83v14.17h93.83v-14.17h93.83v14.17h93.83v-14.17h93.83v14.17h93.83v-14.17h93.83v14.17h93.83v-14.17h93.83v14.17h93.83v-14.17h74.13v-17.43h14.17v-93.83h-14.17v-93.83h14.17v-93.83h-14.17v-93.83h14.17v-93.83h-14.17v-93.83h14.17v-93.83h-14.17v-17.43h-74.13v-14.17Z"/>
  <path class="st0" d="M3269.59,108.92h-93.83v14.17h-93.83v-14.17h-93.83v14.17h-93.83v-14.17h-93.83v14.17h-93.83v-14.17h-93.83v14.17h-93.83v-14.17h-93.83v14.17h-93.83v-14.17h-93.83v14.17h-93.83v-14.17h-93.83v14.17h-93.83v-14.17h-93.83v14.17h-74.13v17.43h-14.17v93.83h14.17v93.83h-14.17v93.83h14.17v93.83h-14.17v93.83h14.17v93.83h-14.17v93.83h14.17v17.43h74.13v14.17h93.83v-14.17h93.83v14.17h93.83v-14.17h93.83v14.17h93.83v-14.17h93.83v14.17h93.83v-14.17h93.83v14.17h93.83v-14.17h93.83v14.17h93.83v-14.17h93.83v14.17h93.83v-14.17h93.83v14.17h93.83v-14.17h74.13v-17.43h14.17v-93.83h-14.17v-93.83h14.17v-93.83h-14.17v-93.83h14.17v-93.83h-14.17v-93.83h14.17v-93.83h-14.17v-17.43h-74.13v-14.17Z"/>
  <rect class="st1" x="1799.21" y="1557.44" width="1584" height="1152"/>
  <path class="st1" d="M1710.87,2709.44H126.87v-1152h1584v1152ZM1636.85,2011.1H200.89v56.24h1435.96v-56.24Z"/>
</svg>