<?xml version="1.0" encoding="UTF-8"?>
<!-- Created by Makercase v3 -->
<!-- MAKERCASE_STATE:{"mc":1,"gen":"basicBox","sv":2,"store":"basicBoxStore","data":"fY9Nb8IwDIb/i89RlGbN2ua8yw6TJrHbtENYTGupX0pSKCD+O4YC4kRu8evHfnyELYZIQw9WC1gP82cfyeMHdRHsEXbkUwPWGC1LZUx1fwI8jpdE56VUyrwLaJDqJoEtlNTPreVJQOcSBnLtZeTWtRMyKKuq4JUJZ4ZAySwrQcD/FNPQgU1hQgbpagN249qIAoYRWfT2Ydmf/cghbKivMTCNvsZvF9wiv5RXdOCeNyMzpYuHFV+wxF/EEw3L5Pmj5OYXwCrhCFZJw3oBe4/BrVve8JsJ9Xc6Aw==","crc":2502269487} -->
<svg width="44.512in" height="16.630in" viewBox="-5 -5 1130.60 422.40" version="1.1" xmlns="http://www.w3.org/2000/svg" xmlns:xlink="http://www.w3.org/1999/xlink"><g transform="matrix(1, 0, 0, -1, 279.400390625, 374.298828125)">
<path stroke="#ff0000" stroke-width="1.016" fill="none" d="M276.402 38.100 L263.271 38.100 263.271 35.103 228.168 35.103 228.168 38.100 193.065 38.100 193.065 35.103 157.962 35.103 157.962 38.100 122.859 38.100 122.859 35.103 87.757 35.103 87.757 38.100 52.654 38.100 52.654 35.103 17.551 35.103 17.551 38.100 -17.552 38.100 -17.552 35.103 -52.654 35.103 -52.654 38.100 -87.757 38.100 -87.757 35.103 -122.860 35.103 -122.860 38.100 -157.963 38.100 -157.963 35.103 -193.065 35.103 -193.065 38.100 -228.168 38.100 -228.168 35.103 -263.271 35.103 -263.271 38.100 -276.402 38.100 -276.402 35.103 -276.402 17.552 -279.400 17.552 -279.400 -17.551 -276.402 -17.551 -276.402 -35.103 -276.402 -38.100 -263.271 -38.100 -263.271 -35.103 -228.168 -35.103 -228.168 -38.100 -193.065 -38.100 -193.065 -35.103 -157.962 -35.103 -157.962 -38.100 -122.859 -38.100 -122.859 -35.103 -87.757 -35.103 -87.757 -38.100 -52.654 -38.100 -52.654 -35.103 -17.551 -35.103 -17.551 -38.100 17.552 -38.100 17.552 -35.103 52.654 -35.103 52.654 -38.100 87.757 -38.100 87.757 -35.103 122.860 -35.103 122.860 -38.100 157.963 -38.100 157.963 -35.103 193.065 -35.103 193.065 -38.100 228.168 -38.100 228.168 -35.103 263.271 -35.103 263.271 -38.100 276.402 -38.100 276.402 -35.103 276.402 -17.552 279.400 -17.552 279.400 17.551 276.402 17.551 276.402 35.103 Z"/>

</g>
<g transform="matrix(1, 0, 0, -1, 279.400390625, 295.099609375)">
<path stroke="#ff0000" stroke-width="1.016" fill="none" d="M276.402 38.100 L263.271 38.100 263.271 35.103 228.168 35.103 228.168 38.100 193.065 38.100 193.065 35.103 157.962 35.103 157.962 38.100 122.859 38.100 122.859 35.103 87.757 35.103 87.757 38.100 52.654 38.100 52.654 35.103 17.551 35.103 17.551 38.100 -17.552 38.100 -17.552 35.103 -52.654 35.103 -52.654 38.100 -87.757 38.100 -87.757 35.103 -122.860 35.103 -122.860 38.100 -157.963 38.100 -157.963 35.103 -193.065 35.103 -193.065 38.100 -228.168 38.100 -228.168 35.103 -263.271 35.103 -263.271 38.100 -276.402 38.100 -276.402 35.103 -276.402 17.552 -279.400 17.552 -279.400 -17.551 -276.402 -17.551 -276.402 -35.103 -276.402 -38.100 -263.271 -38.100 -263.271 -35.103 -228.168 -35.103 -228.168 -38.100 -193.065 -38.100 -193.065 -35.103 -157.962 -35.103 -157.962 -38.100 -122.859 -38.100 -122.859 -35.103 -87.757 -35.103 -87.757 -38.100 -52.654 -38.100 -52.654 -35.103 -17.551 -35.103 -17.551 -38.100 17.552 -38.100 17.552 -35.103 52.654 -35.103 52.654 -38.100 87.757 -38.100 87.757 -35.103 122.860 -35.103 122.860 -38.100 157.963 -38.100 157.963 -35.103 193.065 -35.103 193.065 -38.100 228.168 -38.100 228.168 -35.103 263.271 -35.103 263.271 -38.100 276.402 -38.100 276.402 -35.103 276.402 -17.552 279.400 -17.552 279.400 17.551 276.402 17.551 276.402 35.103 Z"/>

</g>
<g transform="matrix(1, 0, 0, -1, 688.80078125, 117.298828125)">
<path stroke="#ff0000" stroke-width="1.016" fill="none" d="M127.000 38.100 L124.003 38.100 87.757 38.100 87.757 35.103 52.654 35.103 52.654 38.100 17.551 38.100 17.551 35.103 -17.552 35.103 -17.552 38.100 -52.654 38.100 -52.654 35.103 -87.757 35.103 -87.757 38.100 -124.003 38.100 -127.000 38.100 -127.000 35.103 -127.000 17.552 -124.003 17.552 -124.003 -17.552 -127.000 -17.552 -127.000 -35.103 -127.000 -38.100 -124.003 -38.100 -87.757 -38.100 -87.757 -35.103 -52.654 -35.103 -52.654 -38.100 -17.551 -38.100 -17.551 -35.103 17.552 -35.103 17.552 -38.100 52.654 -38.100 52.654 -35.103 87.757 -35.103 87.757 -38.100 124.003 -38.100 127.000 -38.100 127.000 -35.103 127.000 -17.552 124.003 -17.552 124.003 17.552 127.000 17.552 127.000 35.103 Z"/>

</g>
<g transform="matrix(1, 0, 0, -1, 945.80078125, 117.298828125)">
<path stroke="#ff0000" stroke-width="1.016" fill="none" d="M127.000 38.100 L124.003 38.100 87.757 38.100 87.757 35.103 52.654 35.103 52.654 38.100 17.551 38.100 17.551 35.103 -17.552 35.103 -17.552 38.100 -52.654 38.100 -52.654 35.103 -87.757 35.103 -87.757 38.100 -124.003 38.100 -127.000 38.100 -127.000 35.103 -127.000 17.552 -124.003 17.552 -124.003 -17.552 -127.000 -17.552 -127.000 -35.103 -127.000 -38.100 -124.003 -38.100 -87.757 -38.100 -87.757 -35.103 -52.654 -35.103 -52.654 -38.100 -17.551 -38.100 -17.551 -35.103 17.552 -35.103 17.552 -38.100 52.654 -38.100 52.654 -35.103 87.757 -35.103 87.757 -38.100 124.003 -38.100 127.000 -38.100 127.000 -35.103 127.000 -17.552 124.003 -17.552 124.003 17.552 127.000 17.552 127.000 35.103 Z"/>

</g>
<g transform="matrix(1, 0, 0, -1, 279.400390625, 127)">
<path stroke="#ff0000" stroke-width="1.016" fill="none" d="M263.271 127.000 L228.168 127.000 228.168 124.003 193.065 124.003 193.065 127.000 157.962 127.000 157.962 124.003 122.859 124.003 122.859 127.000 87.757 127.000 87.757 124.003 52.654 124.003 52.654 127.000 17.551 127.000 17.551 124.003 -17.552 124.003 -17.552 127.000 -52.654 127.000 -52.654 124.003 -87.757 124.003 -87.757 127.000 -122.860 127.000 -122.860 124.003 -157.963 124.003 -157.963 127.000 -193.065 127.000 -193.065 124.003 -228.168 124.003 -228.168 127.000 -263.271 127.000 -263.271 124.003 -276.402 124.003 -276.402 87.757 -279.400 87.757 -279.400 52.654 -276.402 52.654 -276.402 17.551 -279.400 17.551 -279.400 -17.552 -276.402 -17.552 -276.402 -52.654 -279.400 -52.654 -279.400 -87.757 -276.402 -87.757 -276.402 -124.003 -263.271 -124.003 -263.271 -127.000 -228.168 -127.000 -228.168 -124.003 -193.065 -124.003 -193.065 -127.000 -157.962 -127.000 -157.962 -124.003 -122.859 -124.003 -122.859 -127.000 -87.757 -127.000 -87.757 -124.003 -52.654 -124.003 -52.654 -127.000 -17.551 -127.000 -17.551 -124.003 17.552 -124.003 17.552 -127.000 52.654 -127.000 52.654 -124.003 87.757 -124.003 87.757 -127.000 122.860 -127.000 122.860 -124.003 157.963 -124.003 157.963 -127.000 193.065 -127.000 193.065 -124.003 228.168 -124.003 228.168 -127.000 263.271 -127.000 263.271 -124.003 276.402 -124.003 276.402 -87.757 279.400 -87.757 279.400 -52.654 276.402 -52.654 276.402 -17.551 279.400 -17.551 279.400 17.552 276.402 17.552 276.402 52.654 279.400 52.654 279.400 87.757 276.402 87.757 276.402 124.003 263.271 124.003 Z"/>

</g>
<g transform="matrix(1, 0, 0, -1, 841.201171875, 285.3984375)">
<path stroke="#ff0000" stroke-width="1.016" fill="none" d="M263.271 127.000 L228.168 127.000 228.168 124.003 193.065 124.003 193.065 127.000 157.962 127.000 157.962 124.003 122.859 124.003 122.859 127.000 87.757 127.000 87.757 124.003 52.654 124.003 52.654 127.000 17.551 127.000 17.551 124.003 -17.552 124.003 -17.552 127.000 -52.654 127.000 -52.654 124.003 -87.757 124.003 -87.757 127.000 -122.860 127.000 -122.860 124.003 -157.963 124.003 -157.963 127.000 -193.065 127.000 -193.065 124.003 -228.168 124.003 -228.168 127.000 -263.271 127.000 -263.271 124.003 -276.402 124.003 -276.402 87.757 -279.400 87.757 -279.400 52.654 -276.402 52.654 -276.402 17.551 -279.400 17.551 -279.400 -17.552 -276.402 -17.552 -276.402 -52.654 -279.400 -52.654 -279.400 -87.757 -276.402 -87.757 -276.402 -124.003 -263.271 -124.003 -263.271 -127.000 -228.168 -127.000 -228.168 -124.003 -193.065 -124.003 -193.065 -127.000 -157.962 -127.000 -157.962 -124.003 -122.859 -124.003 -122.859 -127.000 -87.757 -127.000 -87.757 -124.003 -52.654 -124.003 -52.654 -127.000 -17.551 -127.000 -17.551 -124.003 17.552 -124.003 17.552 -127.000 52.654 -127.000 52.654 -124.003 87.757 -124.003 87.757 -127.000 122.860 -127.000 122.860 -124.003 157.963 -124.003 157.963 -127.000 193.065 -127.000 193.065 -124.003 228.168 -124.003 228.168 -127.000 263.271 -127.000 263.271 -124.003 276.402 -124.003 276.402 -87.757 279.400 -87.757 279.400 -52.654 276.402 -52.654 276.402 -17.551 279.400 -17.551 279.400 17.552 276.402 17.552 276.402 52.654 279.400 52.654 279.400 87.757 276.402 87.757 276.402 124.003 263.271 124.003 Z"/>

</g></svg>